<svg width="265" height="36" viewBox="0 0 265 36" fill="none" xmlns="http://www.w3.org/2000/svg">
<path d="M49.2321 9.12627V12.9458H40.4471V17.9406H47.1755V21.6133H40.4471V26.711H49.2321V30.5305H35.4523V9.12627H49.2321ZM63.0099 20.7466C63.2058 21.1187 63.3918 21.5056 63.5681 21.9071C63.7542 22.3087 63.9305 22.72 64.097 23.1411C64.2635 22.7102 64.4398 22.294 64.6259 21.8924C64.8119 21.4811 65.0029 21.0844 65.1988 20.7025L70.6931 9.89018C70.791 9.7041 70.889 9.56209 70.9869 9.46415C71.0946 9.35642 71.2122 9.27807 71.3395 9.2291C71.4668 9.18013 71.6088 9.15075 71.7655 9.14096C71.932 9.13116 72.123 9.12627 72.3384 9.12627H76.1286V30.5305H71.7508V18.2198C71.7508 17.6223 71.7802 16.976 71.839 16.2806L66.1684 27.2839C65.9921 27.6267 65.7521 27.8862 65.4485 28.0625C65.1547 28.2388 64.8168 28.3269 64.4349 28.3269H63.7591C63.3772 28.3269 63.0344 28.2388 62.7308 28.0625C62.437 27.8862 62.2019 27.6267 62.0256 27.2839L56.3257 16.2659C56.3648 16.6087 56.3942 16.9515 56.4138 17.2943C56.4334 17.6272 56.4432 17.9357 56.4432 18.2198V30.5305H52.0654V9.12627H55.8556C56.071 9.12627 56.2571 9.13116 56.4138 9.14096C56.5803 9.15075 56.7272 9.18013 56.8545 9.2291C56.9818 9.27807 57.0945 9.35642 57.1924 9.46415C57.3001 9.56209 57.403 9.7041 57.5009 9.89018L63.0099 20.7466ZM84.6331 23.3762V30.5305H79.6677V9.12627H87.2187C88.7269 9.12627 90.0197 9.30745 91.097 9.66982C92.1841 10.0224 93.0753 10.5121 93.7707 11.1389C94.4758 11.7657 94.9949 12.5051 95.3279 13.3572C95.6609 14.2092 95.8274 15.1298 95.8274 16.119C95.8274 17.1865 95.656 18.1659 95.3132 19.0571C94.9704 19.9484 94.4465 20.7123 93.7413 21.3489C93.0362 21.9855 92.14 22.4849 91.0529 22.8473C89.9756 23.1999 88.6975 23.3762 87.2187 23.3762H84.6331ZM84.6331 19.6301H87.2187C88.5114 19.6301 89.4419 19.3216 90.0099 18.7046C90.5779 18.0876 90.8619 17.2257 90.8619 16.119C90.8619 15.6293 90.7885 15.1837 90.6416 14.7822C90.4947 14.3806 90.2694 14.0378 89.9658 13.7538C89.672 13.46 89.2949 13.2347 88.8346 13.078C88.3841 12.9213 87.8455 12.843 87.2187 12.843H84.6331V19.6301ZM103.84 30.5305H98.8447V9.12627H103.84V30.5305ZM112.781 22.6123V30.5305H107.815V9.12627H114.779C116.326 9.12627 117.643 9.28786 118.73 9.61106C119.827 9.92446 120.718 10.3652 121.404 10.9332C122.099 11.5013 122.604 12.1721 122.917 12.9458C123.231 13.7195 123.387 14.5618 123.387 15.4726C123.387 16.168 123.294 16.8242 123.108 17.4412C122.922 18.0582 122.643 18.6311 122.271 19.16C121.908 19.679 121.458 20.1442 120.919 20.5556C120.39 20.9669 119.778 21.3048 119.083 21.5692C119.416 21.7357 119.724 21.9414 120.008 22.1862C120.302 22.4311 120.557 22.7298 120.772 23.0824L125.326 30.5305H120.831C119.999 30.5305 119.401 30.2171 119.039 29.5903L115.484 23.3762C115.327 23.102 115.141 22.9061 114.925 22.7886C114.72 22.671 114.426 22.6123 114.044 22.6123H112.781ZM112.781 19.1893H114.779C115.454 19.1893 116.027 19.1061 116.497 18.9396C116.977 18.7633 117.369 18.5234 117.673 18.2198C117.976 17.9162 118.197 17.5636 118.334 17.162C118.471 16.7507 118.539 16.31 118.539 15.8399C118.539 14.8997 118.231 14.1652 117.614 13.6363C117.007 13.1074 116.062 12.843 114.779 12.843H112.781V19.1893ZM141.135 9.12627V12.9458H132.35V17.9406H139.078V21.6133H132.35V26.711H141.135V30.5305H127.355V9.12627H141.135ZM150.442 30.5305V9.47884H157.156C158.449 9.47884 159.56 9.60616 160.491 9.8608C161.431 10.1154 162.2 10.4778 162.797 10.9479C163.404 11.418 163.85 11.9958 164.134 12.6814C164.428 13.3572 164.575 14.1211 164.575 14.9731C164.575 15.4922 164.491 15.9917 164.325 16.4716C164.168 16.9515 163.923 17.3971 163.59 17.8084C163.267 18.2198 162.856 18.587 162.356 18.9102C161.867 19.2334 161.289 19.4979 160.623 19.7035C162.161 20.0071 163.321 20.5605 164.105 21.3636C164.888 22.1667 165.28 23.2244 165.28 24.5367C165.28 25.428 165.113 26.2409 164.78 26.9754C164.457 27.7099 163.977 28.3416 163.341 28.8705C162.714 29.3993 161.94 29.8107 161.02 30.1045C160.109 30.3885 159.066 30.5305 157.89 30.5305H150.442ZM153.292 20.9375V28.2682H157.846C158.659 28.2682 159.355 28.1751 159.932 27.989C160.52 27.803 161 27.5434 161.372 27.2104C161.754 26.8677 162.033 26.4661 162.21 26.0058C162.386 25.5357 162.474 25.0215 162.474 24.4633C162.474 23.3762 162.087 22.5192 161.313 21.8924C160.549 21.2558 159.389 20.9375 157.832 20.9375H153.292ZM153.292 18.9102H157.053C157.856 18.9102 158.552 18.8221 159.139 18.6458C159.727 18.4695 160.212 18.2247 160.594 17.9113C160.985 17.5979 161.274 17.2208 161.46 16.7801C161.646 16.3296 161.739 15.8399 161.739 15.311C161.739 14.077 161.367 13.1711 160.623 12.5933C159.879 12.0154 158.723 11.7265 157.156 11.7265H153.292V18.9102ZM177.648 28.2682C178.52 28.2682 179.298 28.1213 179.984 27.8274C180.67 27.5336 181.247 27.1223 181.718 26.5934C182.197 26.0646 182.56 25.4329 182.805 24.6983C183.059 23.9638 183.187 23.1558 183.187 22.2744V9.47884H186.022V22.2744C186.022 23.4888 185.826 24.6151 185.434 25.6532C185.052 26.6914 184.499 27.5924 183.774 28.3563C183.059 29.1104 182.183 29.7029 181.145 30.1339C180.106 30.5648 178.941 30.7803 177.648 30.7803C176.355 30.7803 175.19 30.5648 174.152 30.1339C173.114 29.7029 172.232 29.1104 171.508 28.3563C170.783 27.5924 170.225 26.6914 169.833 25.6532C169.451 24.6151 169.26 23.4888 169.26 22.2744V9.47884H172.095V22.2597C172.095 23.1411 172.218 23.9491 172.462 24.6836C172.717 25.4182 173.079 26.0499 173.55 26.5787C174.029 27.1076 174.612 27.5238 175.298 27.8274C175.993 28.1213 176.777 28.2682 177.648 28.2682ZM194.057 21.7455V30.5305H191.221V9.47884H197.171C198.503 9.47884 199.654 9.61595 200.623 9.89018C201.593 10.1546 202.391 10.5415 203.018 11.0507C203.655 11.56 204.125 12.177 204.428 12.9018C204.732 13.6167 204.884 14.4198 204.884 15.311C204.884 16.0553 204.766 16.7507 204.531 17.3971C204.296 18.0435 203.953 18.6262 203.503 19.1453C203.062 19.6546 202.519 20.0904 201.872 20.4527C201.236 20.8151 200.511 21.0893 199.698 21.2754C200.051 21.4811 200.364 21.7798 200.638 22.1715L206.779 30.5305H204.252C203.733 30.5305 203.351 30.3297 203.106 29.9282L197.641 22.4066C197.475 22.1715 197.294 22.0051 197.098 21.9071C196.902 21.7994 196.608 21.7455 196.216 21.7455H194.057ZM194.057 19.6741H197.039C197.871 19.6741 198.601 19.5762 199.228 19.3803C199.864 19.1747 200.393 18.8906 200.814 18.5283C201.245 18.1561 201.569 17.7154 201.784 17.2061C201.999 16.6968 202.107 16.1337 202.107 15.5167C202.107 14.2631 201.691 13.318 200.859 12.6814C200.036 12.0448 198.807 11.7265 197.171 11.7265H194.057V19.6741ZM218.535 28.4591C219.103 28.4591 219.622 28.4347 220.092 28.3857C220.572 28.3269 221.022 28.2437 221.444 28.1359C221.865 28.0282 222.261 27.9009 222.633 27.754C223.006 27.5973 223.378 27.421 223.75 27.2251V22.5829H220.489C220.303 22.5829 220.151 22.529 220.033 22.4213C219.926 22.3136 219.872 22.1813 219.872 22.0246V20.4087H226.336V28.4885C225.807 28.8705 225.253 29.2035 224.675 29.4875C224.107 29.7715 223.495 30.0114 222.839 30.2073C222.193 30.3934 221.497 30.5305 220.753 30.6187C220.009 30.7166 219.201 30.7656 218.329 30.7656C216.801 30.7656 215.401 30.506 214.128 29.987C212.854 29.4581 211.758 28.7236 210.837 27.7834C209.916 26.8334 209.196 25.6973 208.677 24.3751C208.168 23.053 207.913 21.5986 207.913 20.012C207.913 18.4058 208.163 16.9417 208.663 15.6195C209.172 14.2974 209.892 13.1662 210.822 12.226C211.762 11.276 212.894 10.5415 214.216 10.0224C215.548 9.50333 217.036 9.24379 218.682 9.24379C219.514 9.24379 220.288 9.30745 221.003 9.43477C221.718 9.55229 222.379 9.72858 222.986 9.96363C223.603 10.1889 224.171 10.468 224.69 10.801C225.209 11.1242 225.694 11.4915 226.145 11.9028L225.337 13.1956C225.17 13.46 224.955 13.5922 224.69 13.5922C224.533 13.5922 224.362 13.5384 224.176 13.4306C223.931 13.2935 223.657 13.127 223.353 12.9311C223.05 12.7353 222.678 12.5492 222.237 12.3729C221.806 12.1868 221.292 12.0301 220.694 11.9028C220.107 11.7755 219.406 11.7118 218.594 11.7118C217.409 11.7118 216.336 11.9077 215.376 12.2994C214.417 12.6814 213.599 13.2347 212.923 13.9595C212.247 14.6744 211.728 15.5461 211.366 16.5744C211.003 17.593 210.822 18.7388 210.822 20.012C210.822 21.344 211.008 22.5339 211.38 23.5818C211.762 24.62 212.296 25.5014 212.982 26.2262C213.667 26.9509 214.48 27.5042 215.42 27.8862C216.361 28.2682 217.399 28.4591 218.535 28.4591ZM243.696 9.47884V11.8H233.589V18.7927H241.772V21.0257H233.589V28.2094H243.696V30.5305H230.724V9.47884H243.696ZM250.926 21.7455V30.5305H248.09V9.47884H254.04C255.372 9.47884 256.523 9.61595 257.492 9.89018C258.462 10.1546 259.26 10.5415 259.887 11.0507C260.523 11.56 260.994 12.177 261.297 12.9018C261.601 13.6167 261.753 14.4198 261.753 15.311C261.753 16.0553 261.635 16.7507 261.4 17.3971C261.165 18.0435 260.822 18.6262 260.372 19.1453C259.931 19.6546 259.387 20.0904 258.741 20.4527C258.104 20.8151 257.38 21.0893 256.567 21.2754C256.919 21.4811 257.233 21.7798 257.507 22.1715L263.648 30.5305H261.121C260.602 30.5305 260.22 30.3297 259.975 29.9282L254.51 22.4066C254.344 22.1715 254.162 22.0051 253.967 21.9071C253.771 21.7994 253.477 21.7455 253.085 21.7455H250.926ZM250.926 19.6741H253.908C254.74 19.6741 255.47 19.5762 256.097 19.3803C256.733 19.1747 257.262 18.8906 257.683 18.5283C258.114 18.1561 258.437 17.7154 258.653 17.2061C258.868 16.6968 258.976 16.1337 258.976 15.5167C258.976 14.2631 258.56 13.318 257.727 12.6814C256.905 12.0448 255.676 11.7265 254.04 11.7265H250.926V19.6741Z" fill="#1D0605" fill-opacity="0.9"/>
<g clip-path="url(#clip0_1002_444)">
<path d="M26.0281 25.3122V27.5238C25.958 27.8079 25.9103 28.0996 25.8156 28.3752C25.2236 30.0934 23.7286 31.1466 21.8896 31.1504C17.0983 31.1504 12.307 31.1504 7.51565 31.1504C7.4048 31.1504 7.29472 31.1504 7.18386 31.1419C5.36942 31.0503 3.76051 29.6724 3.4726 27.8818C3.35405 27.1389 3.39562 26.3699 3.38023 25.6124C3.36791 24.9965 3.68815 24.6886 4.30015 24.6886C7.99524 24.6886 11.6883 24.6886 15.3793 24.6886C15.6457 24.6852 15.9054 24.7729 16.1152 24.9373C16.8907 25.5249 17.6684 26.1089 18.4485 26.6893C18.547 26.7663 18.6471 26.8348 18.7487 26.9087C19.6386 26.2382 20.5093 25.5847 21.3784 24.928C21.5885 24.7639 21.8486 24.6769 22.1151 24.6817C23.0812 24.6886 24.0473 24.6986 25.0119 24.6817C25.5084 24.6678 25.851 24.8395 26.0281 25.3122Z" fill="#1D0605" fill-opacity="0.9"/>
<path d="M29.4923 4.87671C29.2614 5.7566 29.0304 6.63495 28.8072 7.51639C27.9773 10.8266 27.151 14.1368 26.3284 17.4469C26.2806 17.6409 26.2052 17.7033 26.0027 17.7033C18.4848 17.6976 10.9663 17.6959 3.44728 17.6979C3.38107 17.6979 3.3141 17.6917 3.21634 17.6864C3.06237 17.0867 2.90841 16.4855 2.75984 15.8827C1.85916 12.2841 0.961047 8.68496 0.0654999 5.08533C0.00977727 4.90251 -0.00957539 4.71054 0.00853463 4.52028C0.113229 3.87364 0.859176 3.59651 1.39419 4.00682C2.24099 4.66501 3.07777 5.34398 3.91764 6.01526L7.51496 8.89435C8.02612 9.30312 8.10156 9.55254 7.89448 10.1661C7.75073 10.5734 7.76355 11.0195 7.93043 11.4179C8.09731 11.8163 8.40635 12.1383 8.79746 12.3215C9.17927 12.5009 9.61336 12.535 10.0185 12.4174C10.4236 12.2998 10.772 12.0385 10.9984 11.6826C11.2288 11.3232 11.3183 10.8914 11.2499 10.47C11.1814 10.0486 10.9597 9.6673 10.6273 9.39935C10.1215 8.97903 10.0515 8.65417 10.3432 8.06911C11.5236 5.7022 12.7055 3.33452 13.889 0.966068C14.0691 0.602718 14.3147 0.340981 14.7358 0.340212C15.1569 0.339442 15.4078 0.597329 15.5887 0.96145C16.7691 3.33093 17.9508 5.69835 19.1337 8.06372C19.427 8.65109 19.3562 8.9875 18.8574 9.39627C18.5237 9.66341 18.3009 10.0447 18.2319 10.4666C18.163 10.8884 18.2528 11.3208 18.484 11.6803C18.7091 12.037 19.0566 12.2994 19.4613 12.4185C19.866 12.5375 20.3002 12.5049 20.6826 12.3269C21.0699 12.1476 21.3776 11.832 21.547 11.4402C21.7164 11.0485 21.7356 10.608 21.601 10.203C21.3846 9.53329 21.447 9.32159 21.9859 8.88588C23.9643 7.30161 25.9429 5.71837 27.9219 4.13615C28.5816 3.60883 29.1066 3.7243 29.4923 4.47486V4.87671Z" fill="#1D0605" fill-opacity="0.9"/>
<path d="M3.45605 19.4524H26.0277V19.7465C26.0277 20.457 26.0277 21.1675 26.0277 21.8781C26.0277 22.5655 25.6882 22.9035 25 22.9035H4.52302C3.78015 22.9035 3.45991 22.5786 3.45914 21.8257C3.45914 21.1344 3.45914 20.4434 3.45914 19.7526L3.45605 19.4524Z" fill="#1D0605" fill-opacity="0.9"/>
</g>
<defs>
<clipPath id="clip0_1002_444">
<rect width="29.4922" height="30.8086" fill="white" transform="translate(0 0.343384)"/>
</clipPath>
</defs>
</svg>
